<svg xmlns="http://www.w3.org/2000/svg" viewBox="-2 -2 56 166" width="224" height="664"><rect x="22" y="52" width="8" height="100" fill="#a0a4a8" stroke="#555" stroke-width="1.5"/><rect x="3" y="58" width="46" height="21" fill="white" stroke="#111" stroke-width="1.5"/><text x="26" y="72" text-anchor="middle" font-size="10" font-family="sans-serif" font-weight="bold" fill="#111">ZL</text><rect x="1" y="1" width="50" height="50" rx="2" ry="2" fill="#1a1a1a" stroke="#111" stroke-width="2"/><circle cx="7.0" cy="45.0" r="3.4000000000000004" fill="white" opacity="0.15"/><circle cx="7.0" cy="45.0" r="2.2" fill="white"/><circle cx="13.3" cy="45.0" r="2.2" fill="#3a3a3a" stroke="#555" stroke-width="0.5"/><circle cx="19.7" cy="45.0" r="2.2" fill="#3a3a3a" stroke="#555" stroke-width="0.5"/><circle cx="26.0" cy="45.0" r="2.2" fill="#3a3a3a" stroke="#555" stroke-width="0.5"/><circle cx="32.3" cy="45.0" r="2.2" fill="#3a3a3a" stroke="#555" stroke-width="0.5"/><circle cx="38.7" cy="45.0" r="2.2" fill="#3a3a3a" stroke="#555" stroke-width="0.5"/><circle cx="45.0" cy="45.0" r="2.2" fill="#3a3a3a" stroke="#555" stroke-width="0.5"/><circle cx="13.3" cy="38.7" r="3.4000000000000004" fill="white" opacity="0.15"/><circle cx="13.3" cy="38.7" r="2.2" fill="white"/><circle cx="19.7" cy="32.3" r="3.4000000000000004" fill="white" opacity="0.15"/><circle cx="19.7" cy="32.3" r="2.2" fill="white"/><circle cx="26.0" cy="26.0" r="3.4000000000000004" fill="white" opacity="0.15"/><circle cx="26.0" cy="26.0" r="2.2" fill="white"/><circle cx="32.3" cy="19.7" r="3.4000000000000004" fill="white" opacity="0.15"/><circle cx="32.3" cy="19.7" r="2.2" fill="white"/><circle cx="38.7" cy="13.3" r="3.4000000000000004" fill="white" opacity="0.15"/><circle cx="38.7" cy="13.3" r="2.2" fill="white"/><circle cx="45.0" cy="7.0" r="3.4000000000000004" fill="white" opacity="0.15"/><circle cx="45.0" cy="7.0" r="2.2" fill="white"/></svg>