<svg xmlns="http://www.w3.org/2000/svg" viewBox="-2 -2 56 64" width="224" height="256"><rect x="1" y="1" width="50" height="58" rx="2" ry="2" fill="#1a1a1a" stroke="#111" stroke-width="2"/><circle cx="12" cy="9" r="3.2" fill="white" opacity="0.15"/><circle cx="12" cy="9" r="2.2" fill="white"/><circle cx="19" cy="9" r="3.2" fill="white" opacity="0.15"/><circle cx="19" cy="9" r="2.2" fill="white"/><circle cx="26" cy="9" r="3.2" fill="white" opacity="0.15"/><circle cx="26" cy="9" r="2.2" fill="white"/><circle cx="33" cy="9" r="3.2" fill="white" opacity="0.15"/><circle cx="33" cy="9" r="2.2" fill="white"/><circle cx="40" cy="9" r="3.2" fill="white" opacity="0.15"/><circle cx="40" cy="9" r="2.2" fill="white"/><circle cx="12" cy="16" r="3.2" fill="white" opacity="0.15"/><circle cx="12" cy="16" r="2.2" fill="white"/><circle cx="19" cy="16" r="2.2" fill="#2e2e2e" stroke="#444" stroke-width="0.5"/><circle cx="26" cy="16" r="2.2" fill="#2e2e2e" stroke="#444" stroke-width="0.5"/><circle cx="33" cy="16" r="2.2" fill="#2e2e2e" stroke="#444" stroke-width="0.5"/><circle cx="40" cy="16" r="2.2" fill="#2e2e2e" stroke="#444" stroke-width="0.5"/><circle cx="12" cy="23" r="3.2" fill="white" opacity="0.15"/><circle cx="12" cy="23" r="2.2" fill="white"/><circle cx="19" cy="23" r="2.2" fill="#2e2e2e" stroke="#444" stroke-width="0.5"/><circle cx="26" cy="23" r="2.2" fill="#2e2e2e" stroke="#444" stroke-width="0.5"/><circle cx="33" cy="23" r="2.2" fill="#2e2e2e" stroke="#444" stroke-width="0.5"/><circle cx="40" cy="23" r="2.2" fill="#2e2e2e" stroke="#444" stroke-width="0.5"/><circle cx="12" cy="30" r="3.2" fill="white" opacity="0.15"/><circle cx="12" cy="30" r="2.2" fill="white"/><circle cx="19" cy="30" r="3.2" fill="white" opacity="0.15"/><circle cx="19" cy="30" r="2.2" fill="white"/><circle cx="26" cy="30" r="3.2" fill="white" opacity="0.15"/><circle cx="26" cy="30" r="2.2" fill="white"/><circle cx="33" cy="30" r="3.2" fill="white" opacity="0.15"/><circle cx="33" cy="30" r="2.2" fill="white"/><circle cx="40" cy="30" r="2.2" fill="#2e2e2e" stroke="#444" stroke-width="0.5"/><circle cx="12" cy="37" r="2.2" fill="#2e2e2e" stroke="#444" stroke-width="0.5"/><circle cx="19" cy="37" r="2.2" fill="#2e2e2e" stroke="#444" stroke-width="0.5"/><circle cx="26" cy="37" r="2.2" fill="#2e2e2e" stroke="#444" stroke-width="0.5"/><circle cx="33" cy="37" r="2.2" fill="#2e2e2e" stroke="#444" stroke-width="0.5"/><circle cx="40" cy="37" r="3.2" fill="white" opacity="0.15"/><circle cx="40" cy="37" r="2.2" fill="white"/><circle cx="12" cy="44" r="2.2" fill="#2e2e2e" stroke="#444" stroke-width="0.5"/><circle cx="19" cy="44" r="2.2" fill="#2e2e2e" stroke="#444" stroke-width="0.5"/><circle cx="26" cy="44" r="2.2" fill="#2e2e2e" stroke="#444" stroke-width="0.5"/><circle cx="33" cy="44" r="2.2" fill="#2e2e2e" stroke="#444" stroke-width="0.5"/><circle cx="40" cy="44" r="3.2" fill="white" opacity="0.15"/><circle cx="40" cy="44" r="2.2" fill="white"/><circle cx="12" cy="51" r="3.2" fill="white" opacity="0.15"/><circle cx="12" cy="51" r="2.2" fill="white"/><circle cx="19" cy="51" r="3.2" fill="white" opacity="0.15"/><circle cx="19" cy="51" r="2.2" fill="white"/><circle cx="26" cy="51" r="3.2" fill="white" opacity="0.15"/><circle cx="26" cy="51" r="2.2" fill="white"/><circle cx="33" cy="51" r="3.2" fill="white" opacity="0.15"/><circle cx="33" cy="51" r="2.2" fill="white"/><circle cx="40" cy="51" r="2.2" fill="#2e2e2e" stroke="#444" stroke-width="0.5"/></svg>