<svg xmlns="http://www.w3.org/2000/svg" viewBox="-2 -2 68 118" width="272" height="472"><rect x="28" y="56" width="8" height="50" fill="#a0a4a8" stroke="#555" stroke-width="1.5"/><rect x="10" y="60" width="44" height="17" fill="white" stroke="#111" stroke-width="1.5"/><text x="32" y="72" text-anchor="middle" font-size="10" font-family="sans-serif" font-weight="bold" fill="#111">R567</text><path d="M 3,0 L 24,0 Q 64,0 64,40 L 64,53 Q 64,56 61,56 L 3,56 Q 0,56 0,53 L 0,3 Q 0,0 3,0 Z" fill="#2c2c2c" stroke="#111" stroke-width="2"/><circle cx="14" cy="13" r="10" fill="#1e1e1e" stroke="#333" stroke-width="1"/><circle cx="39" cy="19" r="12" fill="#fff" opacity="0.15"/><circle cx="39" cy="19" r="10" fill="#e8e8e8" stroke="#bbb" stroke-width="1.5"/><circle cx="39" cy="19" r="3.8" fill="#fff" opacity="0.7"/><circle cx="14" cy="44" r="12" fill="#fff" opacity="0.15"/><circle cx="14" cy="44" r="10" fill="#e8e8e8" stroke="#bbb" stroke-width="1.5"/><circle cx="14" cy="44" r="3.8" fill="#fff" opacity="0.7"/><circle cx="50" cy="44" r="10" fill="#1e1e1e" stroke="#333" stroke-width="1"/></svg>