<svg xmlns="http://www.w3.org/2000/svg" viewBox="-2 -2 56 56" width="224" height="224"><rect x="1" y="1" width="50" height="50" rx="2" ry="2" fill="#1a1a1a" stroke="#111" stroke-width="2"/><circle cx="6.0" cy="6.0" r="3.2" fill="white" opacity="0.15"/><circle cx="6.0" cy="6.0" r="2.2" fill="white"/><circle cx="12.7" cy="12.7" r="3.2" fill="white" opacity="0.15"/><circle cx="12.7" cy="12.7" r="2.2" fill="white"/><circle cx="19.3" cy="19.3" r="3.2" fill="white" opacity="0.15"/><circle cx="19.3" cy="19.3" r="2.2" fill="white"/><circle cx="26.0" cy="26.0" r="3.2" fill="white" opacity="0.15"/><circle cx="26.0" cy="26.0" r="2.2" fill="white"/><circle cx="32.7" cy="32.7" r="3.2" fill="white" opacity="0.15"/><circle cx="32.7" cy="32.7" r="2.2" fill="white"/><circle cx="39.3" cy="39.3" r="3.2" fill="white" opacity="0.15"/><circle cx="39.3" cy="39.3" r="2.2" fill="white"/><circle cx="46.0" cy="46.0" r="3.2" fill="white" opacity="0.15"/><circle cx="46.0" cy="46.0" r="2.2" fill="white"/><circle cx="6.0" cy="46.0" r="2.2" fill="#3a3a3a" stroke="#555" stroke-width="0.5"/><circle cx="12.7" cy="39.3" r="2.2" fill="#3a3a3a" stroke="#555" stroke-width="0.5"/><circle cx="19.3" cy="32.7" r="2.2" fill="#3a3a3a" stroke="#555" stroke-width="0.5"/><circle cx="32.7" cy="19.3" r="2.2" fill="#3a3a3a" stroke="#555" stroke-width="0.5"/><circle cx="39.3" cy="12.7" r="2.2" fill="#3a3a3a" stroke="#555" stroke-width="0.5"/><circle cx="46.0" cy="6.0" r="2.2" fill="#3a3a3a" stroke="#555" stroke-width="0.5"/><circle cx="26.0" cy="26.0" r="3.2" fill="white" opacity="0.15"/><circle cx="26.0" cy="26.0" r="2.2" fill="white"/></svg>